<svg width="8" height="15" viewBox="0 0 8 15" fill="none" xmlns="http://www.w3.org/2000/svg">
<path fill-rule="evenodd" clip-rule="evenodd" d="M0.661417 13.4786C0.296127 13.0881 0.296126 12.4549 0.661417 12.0644L5.95275 6.40752C6.31804 6.017 6.9103 6.017 7.27559 6.40752C7.64088 6.79805 7.64088 7.43121 7.27559 7.82174L1.98425 13.4786C1.61896 13.8691 1.02671 13.8691 0.661417 13.4786Z" fill="#D8D8D8"/>
<path fill-rule="evenodd" clip-rule="evenodd" d="M7.28544 7.77922C6.92015 8.16975 6.3279 8.16975 5.96261 7.77922L0.67129 2.12237C0.306001 1.73184 0.306002 1.09868 0.671291 0.708154C1.03658 0.317629 1.62883 0.31763 1.99412 0.708154L7.28544 6.36501C7.65073 6.75553 7.65073 7.3887 7.28544 7.77922Z" fill="#D8D8D8"/>
</svg>
