<svg width="16" height="8" viewBox="0 0 16 8" fill="none" xmlns="http://www.w3.org/2000/svg">
<path fill-rule="evenodd" clip-rule="evenodd" d="M1.58781 0.661417C1.97834 0.296127 2.6115 0.296126 3.00203 0.661417L8.65888 5.95275C9.04941 6.31804 9.04941 6.9103 8.65888 7.27559C8.26836 7.64088 7.63519 7.64088 7.24467 7.27559L1.58782 1.98425C1.19729 1.61896 1.19729 1.02671 1.58781 0.661417Z" fill="#D8D8D8"/>
<path fill-rule="evenodd" clip-rule="evenodd" d="M7.28816 7.28544C6.89764 6.92015 6.89764 6.3279 7.28816 5.96261L12.945 0.67129C13.3355 0.306001 13.9687 0.306002 14.3592 0.671291C14.7498 1.03658 14.7498 1.62883 14.3592 1.99412L8.70237 7.28544C8.31185 7.65073 7.67869 7.65073 7.28816 7.28544Z" fill="#D8D8D8"/>
</svg>
