<svg width="10" height="22" viewBox="0 0 10 22" fill="none" xmlns="http://www.w3.org/2000/svg">
<path d="M5.36384 9.59543H5.31974C2.76737 8.97637 2.76737 7.84338 2.76737 7.49296C2.76737 6.0738 3.93606 5.43138 5.01654 5.43138C5.46043 5.42965 5.89483 5.56745 6.26478 5.82734C6.63473 6.08724 6.92359 6.45755 7.09482 6.89143C7.15323 7.08341 7.24871 7.26043 7.37518 7.41122C7.50165 7.56201 7.65635 7.68327 7.82944 7.7673C8.00254 7.85133 8.19024 7.8963 8.38062 7.89933C8.57101 7.90237 8.7599 7.86341 8.93531 7.78493C9.11071 7.70645 9.26878 7.59017 9.39948 7.44349C9.53018 7.2968 9.63064 7.12291 9.69448 6.93287C9.75832 6.74283 9.78414 6.54079 9.7703 6.33961C9.75647 6.13843 9.70327 5.9425 9.61411 5.76427C9.32664 5.03113 8.88616 4.3765 8.32571 3.84951C7.76527 3.32253 7.09943 2.93689 6.37817 2.72153V1.46005C6.37817 1.07282 6.23297 0.70145 5.97451 0.427638C5.71606 0.153826 5.36551 0 5 0C4.63449 0 4.28395 0.153826 4.02549 0.427638C3.76703 0.70145 3.62183 1.07282 3.62183 1.46005V2.69233C2.59317 2.9334 1.67319 3.53972 1.01445 4.41074C0.355704 5.28177 -0.00222759 6.36517 1.04317e-05 7.48129C1.04317e-05 8.89461 0.606404 11.4059 4.63617 12.3987H4.68027C7.23263 13.0178 7.23263 14.1508 7.23263 14.5012C7.23263 15.9204 6.06395 16.5628 4.98346 16.5628C4.54489 16.5593 4.11692 16.4196 3.75245 16.1612C3.38798 15.9027 3.103 15.5368 2.93275 15.1086C2.86869 14.9244 2.77011 14.756 2.64296 14.6133C2.5158 14.4706 2.3627 14.3566 2.19288 14.2783C2.02305 14.1999 1.84002 14.1588 1.65479 14.1573C1.46956 14.1559 1.28598 14.1942 1.1151 14.27C0.944215 14.3457 0.789567 14.4573 0.660467 14.598C0.531367 14.7387 0.430486 14.9057 0.363901 15.0888C0.297316 15.2719 0.266406 15.4674 0.273028 15.6635C0.27965 15.8596 0.323669 16.0523 0.402435 16.2299C0.689899 16.963 1.13038 17.6177 1.69083 18.1446C2.25127 18.6716 2.91711 19.0573 3.63837 19.2726V20.54C3.63837 20.9272 3.78357 21.2986 4.04203 21.5724C4.30049 21.8462 4.65103 22 5.01654 22C5.38205 22 5.73259 21.8462 5.99105 21.5724C6.24951 21.2986 6.39471 20.9272 6.39471 20.54V19.3077C7.41938 19.0634 8.33489 18.4564 8.99028 17.5869C9.64567 16.7174 10.0018 15.6373 9.99999 14.5246C9.99999 13.1054 9.42116 10.5941 5.36384 9.59543Z" fill="white"/>
<path d="M5.36384 9.59543H5.31974C2.76737 8.97637 2.76737 7.84338 2.76737 7.49296C2.76737 6.0738 3.93606 5.43138 5.01654 5.43138C5.46043 5.42965 5.89483 5.56745 6.26478 5.82734C6.63473 6.08724 6.92359 6.45755 7.09482 6.89143C7.15323 7.08341 7.24871 7.26043 7.37518 7.41122C7.50165 7.56201 7.65635 7.68327 7.82944 7.7673C8.00254 7.85133 8.19024 7.8963 8.38062 7.89933C8.57101 7.90237 8.7599 7.86341 8.93531 7.78493C9.11071 7.70645 9.26878 7.59017 9.39948 7.44349C9.53018 7.2968 9.63064 7.12291 9.69448 6.93287C9.75832 6.74283 9.78414 6.54079 9.7703 6.33961C9.75647 6.13843 9.70327 5.9425 9.61411 5.76427C9.32664 5.03113 8.88616 4.3765 8.32571 3.84951C7.76527 3.32253 7.09943 2.93689 6.37817 2.72153V1.46005C6.37817 1.07282 6.23297 0.70145 5.97451 0.427638C5.71606 0.153826 5.36551 0 5 0C4.63449 0 4.28395 0.153826 4.02549 0.427638C3.76703 0.70145 3.62183 1.07282 3.62183 1.46005V2.69233C2.59317 2.9334 1.67319 3.53972 1.01445 4.41074C0.355704 5.28177 -0.00222759 6.36517 1.04317e-05 7.48129C1.04317e-05 8.89461 0.606404 11.4059 4.63617 12.3987H4.68027C7.23263 13.0178 7.23263 14.1508 7.23263 14.5012C7.23263 15.9204 6.06395 16.5628 4.98346 16.5628C4.54489 16.5593 4.11692 16.4196 3.75245 16.1612C3.38798 15.9027 3.103 15.5368 2.93275 15.1086C2.86869 14.9244 2.77011 14.756 2.64296 14.6133C2.5158 14.4706 2.3627 14.3566 2.19288 14.2783C2.02305 14.1999 1.84002 14.1588 1.65479 14.1573C1.46956 14.1559 1.28598 14.1942 1.1151 14.27C0.944215 14.3457 0.789567 14.4573 0.660467 14.598C0.531367 14.7387 0.430486 14.9057 0.363901 15.0888C0.297316 15.2719 0.266406 15.4674 0.273028 15.6635C0.27965 15.8596 0.323669 16.0523 0.402435 16.2299C0.689899 16.963 1.13038 17.6177 1.69083 18.1446C2.25127 18.6716 2.91711 19.0573 3.63837 19.2726V20.54C3.63837 20.9272 3.78357 21.2986 4.04203 21.5724C4.30049 21.8462 4.65103 22 5.01654 22C5.38205 22 5.73259 21.8462 5.99105 21.5724C6.24951 21.2986 6.39471 20.9272 6.39471 20.54V19.3077C7.41938 19.0634 8.33489 18.4564 8.99028 17.5869C9.64567 16.7174 10.0018 15.6373 9.99999 14.5246C9.99999 13.1054 9.42116 10.5941 5.36384 9.59543Z" fill="url(#paint0_linear)"/>
<defs>
<linearGradient id="paint0_linear" x1="5.05747" y1="21.9854" x2="5.05747" y2="3.55828e-08" gradientUnits="userSpaceOnUse">
<stop stop-color="#3C51FF"/>
<stop offset="1" stop-color="#0BD5FF"/>
</linearGradient>
</defs>
</svg>
