<svg width="32" height="26" viewBox="0 0 32 26" fill="none" xmlns="http://www.w3.org/2000/svg">
<path fill-rule="evenodd" clip-rule="evenodd" d="M0.996094 3.83898C0.996094 1.71858 2.71468 0 4.83508 0H25.3097C27.4301 0 29.1486 1.71858 29.1486 3.83898V5.33747C30.6394 5.86469 31.708 7.28639 31.708 8.95763V21.7542C31.708 23.8746 29.9894 25.5932 27.869 25.5932H4.83508C2.71468 25.5932 0.996094 23.8746 0.996094 21.7542V3.83898ZM3.55557 7.45911V21.7542C3.55557 22.4606 4.12886 23.0339 4.83523 23.0339H27.8691C28.5755 23.0339 29.1488 22.4606 29.1488 21.7542V19.1949H25.3098C23.1894 19.1949 21.4708 17.4763 21.4708 15.3559C21.4708 13.2355 23.1894 11.5169 25.3098 11.5169H29.1488V8.95759C29.1488 8.25122 28.5755 7.67793 27.8691 7.67793H4.83523C4.38607 7.67793 3.95611 7.60115 3.55557 7.45911ZM29.1488 14.0763H25.3098C24.6034 14.0763 24.0301 14.6496 24.0301 15.356C24.0301 16.0623 24.6034 16.6356 25.3098 16.6356H29.1488V14.0763ZM26.5895 5.11865H4.83523C4.12886 5.11865 3.55557 4.54536 3.55557 3.83899C3.55557 3.13261 4.12886 2.55933 4.83523 2.55933H25.3098C26.0162 2.55933 26.5895 3.13261 26.5895 3.83899V5.11865Z" fill="#979797"/>
</svg>
