<svg width="20" height="12" viewBox="0 0 20 12" fill="none" xmlns="http://www.w3.org/2000/svg">
<path fill-rule="evenodd" clip-rule="evenodd" d="M14.0003 0.963799C14.0003 0.431782 14.4483 0 15.0003 0H19.0003C19.5523 0 20.0003 0.431782 20.0003 0.963799V4.81899C20.0003 5.35101 19.5523 5.78279 19.0003 5.78279C18.4483 5.78279 18.0003 5.35101 18.0003 4.81899V3.29041L12.4143 8.67419C11.6333 9.42692 10.3673 9.42692 9.58625 8.67419L7.00025 6.18181L1.70725 11.2832C1.31625 11.66 0.68425 11.66 0.29325 11.2832C-0.09775 10.9063 -0.09775 10.2972 0.29325 9.92038L5.58625 4.81899C6.36725 4.06627 7.63325 4.06627 8.41425 4.81899L11.0003 7.31138L16.5863 1.9276H15.0003C14.4483 1.9276 14.0003 1.49582 14.0003 0.963799Z" fill="url(#paint0_linear)"/>
<defs>
<linearGradient id="paint0_linear" x1="-2.14973e-07" y1="9.23073" x2="20.1912" y2="-2.74785" gradientUnits="userSpaceOnUse">
<stop stop-color="#482CFF"/>
<stop offset="1" stop-color="#06DCFF"/>
</linearGradient>
</defs>
</svg>
