<svg width="22" height="22" viewBox="0 0 22 22" fill="none" xmlns="http://www.w3.org/2000/svg">
<path fill-rule="evenodd" clip-rule="evenodd" d="M16 2C15.448 2 15 2.448 15 3V16H20V3C20 2.448 19.552 2 19 2H16ZM13 16V7H9C8.448 7 8 7.448 8 8V16H13ZM6 16V12H3C2.448 12 2 12.448 2 13V16H6ZM6 10H3C1.343 10 0 11.343 0 13V16C0 17.104 0.896 18 2 18H20C21.104 18 22 17.104 22 16V3C22 1.343 20.657 0 19 0H16C14.343 0 13 1.343 13 3V5H9C7.343 5 6 6.343 6 8V10ZM0 21C0 20.448 0.448 20 1 20H21C21.552 20 22 20.448 22 21C22 21.552 21.552 22 21 22H1C0.448 22 0 21.552 0 21Z" fill="#3462FF"/>
<path fill-rule="evenodd" clip-rule="evenodd" d="M16 2C15.448 2 15 2.448 15 3V16H20V3C20 2.448 19.552 2 19 2H16ZM13 16V7H9C8.448 7 8 7.448 8 8V16H13ZM6 16V12H3C2.448 12 2 12.448 2 13V16H6ZM6 10H3C1.343 10 0 11.343 0 13V16C0 17.104 0.896 18 2 18H20C21.104 18 22 17.104 22 16V3C22 1.343 20.657 0 19 0H16C14.343 0 13 1.343 13 3V5H9C7.343 5 6 6.343 6 8V10ZM0 21C0 20.448 0.448 20 1 20H21C21.552 20 22 20.448 22 21C22 21.552 21.552 22 21 22H1C0.448 22 0 21.552 0 21Z" fill="url(#paint0_linear)"/>
<defs>
<linearGradient id="paint0_linear" x1="13.5" y1="22" x2="12.5" y2="0.500001" gradientUnits="userSpaceOnUse">
<stop stop-color="#4D1CFF"/>
<stop offset="1" stop-color="#01E8FF"/>
</linearGradient>
</defs>
</svg>
