<svg width="22" height="22" viewBox="0 0 22 22" fill="none" xmlns="http://www.w3.org/2000/svg">
<path fill-rule="evenodd" clip-rule="evenodd" d="M11 1C11 0.448 11.448 0 12 0C17.523 0 22 4.477 22 10C22 10.552 21.552 11 21 11H19.951C19.983 11.329 20 11.663 20 12C20 17.523 15.523 22 10 22C4.477 22 0 17.523 0 12C0 6.477 4.477 2 10 2C10.337 2 10.671 2.017 11 2.049V1ZM11 4.062C10.673 4.021 10.339 4 10 4C5.582 4 2 7.582 2 12C2 16.418 5.582 20 10 20C14.418 20 18 16.418 18 12C18 11.661 17.979 11.327 17.938 11H12C11.448 11 11 10.552 11 10V4.062ZM13 2.062V9H19.938C19.487 5.381 16.619 2.513 13 2.062Z" fill="#4D1CFF"/>
<path fill-rule="evenodd" clip-rule="evenodd" d="M11 1C11 0.448 11.448 0 12 0C17.523 0 22 4.477 22 10C22 10.552 21.552 11 21 11H19.951C19.983 11.329 20 11.663 20 12C20 17.523 15.523 22 10 22C4.477 22 0 17.523 0 12C0 6.477 4.477 2 10 2C10.337 2 10.671 2.017 11 2.049V1ZM11 4.062C10.673 4.021 10.339 4 10 4C5.582 4 2 7.582 2 12C2 16.418 5.582 20 10 20C14.418 20 18 16.418 18 12C18 11.661 17.979 11.327 17.938 11H12C11.448 11 11 10.552 11 10V4.062ZM13 2.062V9H19.938C19.487 5.381 16.619 2.513 13 2.062Z" fill="url(#paint0_linear)"/>
<defs>
<linearGradient id="paint0_linear" x1="11" y1="22" x2="11" y2="-7.45058e-08" gradientUnits="userSpaceOnUse">
<stop stop-color="#482BFF"/>
<stop offset="1" stop-color="#07D8FF"/>
</linearGradient>
</defs>
</svg>
