<svg width="88" height="77" viewBox="0 0 88 77" fill="none" xmlns="http://www.w3.org/2000/svg">
<path d="M0 71.8C1 68.9 2.8 66.4 4.3 63.7C15.6 43.7 26.9 23.7 38.3 3.7C39.2 2.2 40.2 0.8 42 0.2C42.2 0.0999998 42.4 0.1 42.5 0C43 0 43.5 0 44 0C46.2 0.6 47.4 2.1 48.5 4C59.6 23.4 70.8 42.8 81.9 62.2C83.4 64.8 84.9 67.4 86.3 70C86.7 70.7 86.9 71.4 87.2 72.1C87.2 72.6 87.2 73.1 87.2 73.6C86.8 74.6 86.4 75.6 85.4 76.1C84.9 76.3 84.4 76.5 83.9 76.7C57.1 76.7 30.3 76.7 3.5 76.7C1.7 76.1 0.4 75.1 0 73.2C0 72.7 0 72.2 0 71.8ZM80.5 71C68.1 49.3 55.7 27.7 43.3 6C31 27.7 18.8 49.3 6.5 71C31.2 71 55.8 71 80.5 71Z" fill="black"/>
<path d="M0 71.8C1 68.9 2.8 66.4 4.3 63.7C15.6 43.7 26.9 23.7 38.3 3.7C39.2 2.2 40.2 0.8 42 0.2C42.2 0.0999998 42.4 0.1 42.5 0C43 0 43.5 0 44 0C46.2 0.6 47.4 2.1 48.5 4C59.6 23.4 70.8 42.8 81.9 62.2C83.4 64.8 84.9 67.4 86.3 70C86.7 70.7 86.9 71.4 87.2 72.1C87.2 72.6 87.2 73.1 87.2 73.6C86.8 74.6 86.4 75.6 85.4 76.1C84.9 76.3 84.4 76.5 83.9 76.7C57.1 76.7 30.3 76.7 3.5 76.7C1.7 76.1 0.4 75.1 0 73.2C0 72.7 0 72.2 0 71.8ZM80.5 71C68.1 49.3 55.7 27.7 43.3 6C31 27.7 18.8 49.3 6.5 71C31.2 71 55.8 71 80.5 71Z" fill="url(#paint0_linear)"/>
<path d="M49.8997 29.1993C49.6997 30.6993 49.4997 32.3993 49.2997 33.9993C48.9997 36.2993 48.6997 38.4993 48.3997 40.7993C48.0997 43.0993 47.7997 45.2993 47.4997 47.5993C47.2997 49.0993 47.0997 50.5993 46.8997 52.0993C46.6997 53.4993 46.0997 54.5993 44.7997 55.1993C43.2997 55.7993 41.5997 55.1993 40.9997 53.6993C40.4997 52.5993 40.3997 51.3993 40.1997 50.1993C39.7997 47.4993 39.4997 44.8993 39.0997 42.1993C38.7997 39.5993 38.3997 36.9993 38.0997 34.4993C37.8997 32.9993 37.7997 31.5993 37.4997 30.0993C36.7997 27.2993 38.5997 24.8993 40.5997 23.7993C44.5997 21.4993 49.0997 24.3993 49.7997 28.0993C49.8997 28.3993 49.8997 28.6993 49.8997 29.1993Z" fill="black"/>
<path d="M49.8997 29.1993C49.6997 30.6993 49.4997 32.3993 49.2997 33.9993C48.9997 36.2993 48.6997 38.4993 48.3997 40.7993C48.0997 43.0993 47.7997 45.2993 47.4997 47.5993C47.2997 49.0993 47.0997 50.5993 46.8997 52.0993C46.6997 53.4993 46.0997 54.5993 44.7997 55.1993C43.2997 55.7993 41.5997 55.1993 40.9997 53.6993C40.4997 52.5993 40.3997 51.3993 40.1997 50.1993C39.7997 47.4993 39.4997 44.8993 39.0997 42.1993C38.7997 39.5993 38.3997 36.9993 38.0997 34.4993C37.8997 32.9993 37.7997 31.5993 37.4997 30.0993C36.7997 27.2993 38.5997 24.8993 40.5997 23.7993C44.5997 21.4993 49.0997 24.3993 49.7997 28.0993C49.8997 28.3993 49.8997 28.6993 49.8997 29.1993Z" fill="url(#paint1_linear)"/>
<path d="M43.7005 58.0001C46.1005 58.0001 48.0005 60.1001 48.0005 62.5001C48.0005 64.9001 46.0005 66.9001 43.6005 66.9001C41.2005 66.8001 39.2005 64.8001 39.3005 62.4001C39.3005 59.7001 41.4005 57.9001 43.7005 58.0001Z" fill="black"/>
<path d="M43.7005 58.0001C46.1005 58.0001 48.0005 60.1001 48.0005 62.5001C48.0005 64.9001 46.0005 66.9001 43.6005 66.9001C41.2005 66.8001 39.2005 64.8001 39.3005 62.4001C39.3005 59.7001 41.4005 57.9001 43.7005 58.0001Z" fill="url(#paint2_linear)"/>
<defs>
<linearGradient id="paint0_linear" x1="43.6" y1="0" x2="43.6" y2="76.7" gradientUnits="userSpaceOnUse">
<stop stop-color="#15BBFF"/>
<stop offset="1" stop-color="#4143FF"/>
</linearGradient>
<linearGradient id="paint1_linear" x1="43.6227" y1="22.9805" x2="43.6227" y2="55.4293" gradientUnits="userSpaceOnUse">
<stop stop-color="#15BBFF"/>
<stop offset="1" stop-color="#4143FF"/>
</linearGradient>
<linearGradient id="paint2_linear" x1="43.6487" y1="57.9961" x2="43.6487" y2="66.9001" gradientUnits="userSpaceOnUse">
<stop stop-color="#15BBFF"/>
<stop offset="1" stop-color="#4143FF"/>
</linearGradient>
</defs>
</svg>
