<svg width="9" height="15" viewBox="0 0 9 15" fill="none" xmlns="http://www.w3.org/2000/svg">
<path fill-rule="evenodd" clip-rule="evenodd" d="M7.78129 0.768953C8.1265 1.13431 8.1265 1.69507 7.78129 2.06042L2.43629 7.71728C2.04588 8.13046 1.37446 8.13046 0.984059 7.71728C0.638847 7.35192 0.638847 6.79116 0.984059 6.42581L6.32906 0.768952C6.71946 0.355774 7.39089 0.355775 7.78129 0.768953Z" fill="#979797"/>
<path fill-rule="evenodd" clip-rule="evenodd" d="M0.975058 6.46867C1.36546 6.0555 2.03688 6.0555 2.42729 6.46867L7.77229 12.1255C8.1175 12.4909 8.1175 13.0516 7.77229 13.417C7.38189 13.8302 6.71046 13.8302 6.32006 13.417L0.975057 7.76014C0.629845 7.39479 0.629846 6.83403 0.975058 6.46867Z" fill="#979797"/>
</svg>
