<svg width="20" height="20" viewBox="0 0 20 20" fill="none" xmlns="http://www.w3.org/2000/svg">
<path d="M10 0C4.46667 0 0 4.46667 0 10C0 15.5333 4.46667 20 10 20C15.5333 20 20 15.5333 20 10C20 4.46667 15.5333 0 10 0ZM13.5778 12.7556C13.8 12.9778 13.8 13.3556 13.5778 13.5778C13.4667 13.6889 13.3111 13.7556 13.1556 13.7556C13 13.7556 12.8667 13.6889 12.7333 13.5778L10 10.8222L7.24444 13.5778C7.13333 13.6889 6.97778 13.7556 6.82222 13.7556C6.66667 13.7556 6.53333 13.6889 6.4 13.5778C6.17778 13.3556 6.17778 12.9778 6.4 12.7556L9.17778 10L6.42222 7.24444C6.2 7.02222 6.2 6.64444 6.42222 6.42222C6.64444 6.2 7.02222 6.2 7.24444 6.42222L10 9.17778L12.7556 6.42222C12.9778 6.2 13.3556 6.2 13.5778 6.42222C13.8 6.64444 13.8 7.02222 13.5778 7.24444L10.8222 10L13.5778 12.7556Z" fill="#979797"/>
</svg>
