<svg width="10" height="15" viewBox="0 0 10 15" fill="none" xmlns="http://www.w3.org/2000/svg">
<path fill-rule="evenodd" clip-rule="evenodd" d="M8.23177 0.768953C8.59695 1.13431 8.59695 1.69507 8.23177 2.06042L2.57771 7.71728C2.16473 8.13045 1.45448 8.13045 1.04151 7.71728C0.676332 7.35192 0.676332 6.79116 1.04151 6.42581L6.69557 0.768953C7.10855 0.355775 7.8188 0.355775 8.23177 0.768953Z" fill="white"/>
<path fill-rule="evenodd" clip-rule="evenodd" d="M1.0317 6.46965C1.44468 6.05647 2.15493 6.05647 2.5679 6.46965L8.22197 12.1265C8.58715 12.4919 8.58715 13.0526 8.22197 13.418C7.809 13.8312 7.09875 13.8312 6.68577 13.418L1.0317 7.76112C0.666531 7.39577 0.666531 6.835 1.0317 6.46965Z" fill="white"/>
</svg>
