<svg width="31" height="32" viewBox="0 0 31 32" fill="none" xmlns="http://www.w3.org/2000/svg">
<path d="M15.4317 2C17.2258 2 18.6801 3.45434 18.6801 5.24837V5.24837C18.6801 5.54338 18.8724 5.80221 19.1495 5.90349C19.4373 6.00869 19.7194 6.12576 19.9952 6.25411C20.263 6.37873 20.5824 6.33171 20.7913 6.12285V6.12285C22.0599 4.85429 24.1166 4.85429 25.3852 6.12285C26.6538 7.39141 26.6538 9.44821 25.3852 10.7168V10.7168C25.1763 10.9256 25.1293 11.245 25.2539 11.5128C25.3823 11.7886 25.4993 12.0707 25.6046 12.3586C25.7058 12.6356 25.9647 12.8279 26.2596 12.8279V12.8279C28.0537 12.8279 29.508 14.2822 29.508 16.0763C29.508 17.8703 28.0537 19.3246 26.2596 19.3246V19.3246C25.9647 19.3246 25.7058 19.5169 25.6046 19.794C25.4993 20.0818 25.3822 20.3639 25.2539 20.6398C25.1292 20.9076 25.1763 21.227 25.3852 21.4358V21.4358C26.6537 22.7044 26.6538 24.7611 25.3852 26.0297C24.1166 27.2983 22.0599 27.2983 20.7913 26.0297V26.0297C20.5824 25.8208 20.263 25.7738 19.9952 25.8984C19.7194 26.0268 19.4373 26.1439 19.1495 26.2491C18.8724 26.3503 18.6801 26.6092 18.6801 26.9042V26.9042C18.6801 28.6982 17.2258 30.1525 15.4317 30.1525C13.6377 30.1525 12.1834 28.6982 12.1834 26.9042V26.9042C12.1834 26.6092 11.9911 26.3503 11.714 26.2491C11.4262 26.1438 11.1441 26.0268 10.8683 25.8984C10.6005 25.7738 10.2811 25.8208 10.0722 26.0297V26.0297C8.80365 27.2983 6.74688 27.2983 5.47832 26.0297C4.20975 24.7611 4.20975 22.7044 5.47832 21.4358V21.4358C5.68719 21.227 5.73424 20.9076 5.60961 20.6398C5.48124 20.3639 5.36414 20.0818 5.25892 19.794C5.15765 19.5169 4.89883 19.3246 4.60384 19.3246V19.3246C2.80981 19.3246 1.35547 17.8703 1.35547 16.0763C1.35547 14.2822 2.80981 12.8279 4.60384 12.8279V12.8279C4.89883 12.8279 5.15765 12.6356 5.25892 12.3586C5.36414 12.0707 5.48123 11.7886 5.60959 11.5128C5.73421 11.245 5.68717 10.9256 5.47832 10.7168V10.7168C4.20975 9.44815 4.20975 7.39141 5.47832 6.12285C6.74688 4.85429 8.80365 4.85429 10.0722 6.12285V6.12285C10.2811 6.3317 10.6005 6.37874 10.8683 6.25412C11.1441 6.12576 11.4262 6.0087 11.714 5.90349C11.9911 5.80221 12.1834 5.54338 12.1834 5.24837V5.24837C12.1834 3.45434 13.6377 2 15.4317 2Z" stroke="#C4C4C4" stroke-width="2.55932"/>
<path d="M15.4317 2C17.2258 2 18.6801 3.45434 18.6801 5.24837V5.24837C18.6801 5.54338 18.8724 5.80221 19.1495 5.90349C19.4373 6.00869 19.7194 6.12576 19.9952 6.25411C20.263 6.37873 20.5824 6.33171 20.7913 6.12285V6.12285C22.0599 4.85429 24.1166 4.85429 25.3852 6.12285C26.6538 7.39141 26.6538 9.44821 25.3852 10.7168V10.7168C25.1763 10.9256 25.1293 11.245 25.2539 11.5128C25.3823 11.7886 25.4993 12.0707 25.6046 12.3586C25.7058 12.6356 25.9647 12.8279 26.2596 12.8279V12.8279C28.0537 12.8279 29.508 14.2822 29.508 16.0763C29.508 17.8703 28.0537 19.3246 26.2596 19.3246V19.3246C25.9647 19.3246 25.7058 19.5169 25.6046 19.794C25.4993 20.0818 25.3822 20.3639 25.2539 20.6398C25.1292 20.9076 25.1763 21.227 25.3852 21.4358V21.4358C26.6537 22.7044 26.6538 24.7611 25.3852 26.0297C24.1166 27.2983 22.0599 27.2983 20.7913 26.0297V26.0297C20.5824 25.8208 20.263 25.7738 19.9952 25.8984C19.7194 26.0268 19.4373 26.1439 19.1495 26.2491C18.8724 26.3503 18.6801 26.6092 18.6801 26.9042V26.9042C18.6801 28.6982 17.2258 30.1525 15.4317 30.1525C13.6377 30.1525 12.1834 28.6982 12.1834 26.9042V26.9042C12.1834 26.6092 11.9911 26.3503 11.714 26.2491C11.4262 26.1438 11.1441 26.0268 10.8683 25.8984C10.6005 25.7738 10.2811 25.8208 10.0722 26.0297V26.0297C8.80365 27.2983 6.74688 27.2983 5.47832 26.0297C4.20975 24.7611 4.20975 22.7044 5.47832 21.4358V21.4358C5.68719 21.227 5.73424 20.9076 5.60961 20.6398C5.48124 20.3639 5.36414 20.0818 5.25892 19.794C5.15765 19.5169 4.89883 19.3246 4.60384 19.3246V19.3246C2.80981 19.3246 1.35547 17.8703 1.35547 16.0763C1.35547 14.2822 2.80981 12.8279 4.60384 12.8279V12.8279C4.89883 12.8279 5.15765 12.6356 5.25892 12.3586C5.36414 12.0707 5.48123 11.7886 5.60959 11.5128C5.73421 11.245 5.68717 10.9256 5.47832 10.7168V10.7168C4.20975 9.44815 4.20975 7.39141 5.47832 6.12285C6.74688 4.85429 8.80365 4.85429 10.0722 6.12285V6.12285C10.2811 6.3317 10.6005 6.37874 10.8683 6.25412C11.1441 6.12576 11.4262 6.0087 11.714 5.90349C11.9911 5.80221 12.1834 5.54338 12.1834 5.24837V5.24837C12.1834 3.45434 13.6377 2 15.4317 2Z" stroke="url(#paint0_linear)" stroke-width="2.55932"/>
<circle cx="15.4315" cy="16.0761" r="5.41395" stroke="#C4C4C4" stroke-width="2.55932"/>
<circle cx="15.4315" cy="16.0761" r="5.41395" stroke="url(#paint1_linear)" stroke-width="2.55932"/>
<defs>
<linearGradient id="paint0_linear" x1="15.4317" y1="2" x2="15.4317" y2="30.1525" gradientUnits="userSpaceOnUse">
<stop stop-color="#01E9FF"/>
<stop offset="1" stop-color="#4E1AFF"/>
</linearGradient>
<linearGradient id="paint1_linear" x1="15.4315" y1="10.6621" x2="15.4315" y2="21.49" gradientUnits="userSpaceOnUse">
<stop stop-color="#01E9FF"/>
<stop offset="1" stop-color="#4E1AFF"/>
</linearGradient>
</defs>
</svg>
