<svg width="29" height="29" viewBox="0 0 29 29" fill="none" xmlns="http://www.w3.org/2000/svg">
<path fill-rule="evenodd" clip-rule="evenodd" d="M14.4559 2.55935C11.6291 2.55935 9.33725 4.85122 9.33725 7.67799C9.33725 10.5048 11.6291 12.7966 14.4559 12.7966C17.2827 12.7966 19.5745 10.5048 19.5745 7.67799C19.5745 4.85122 17.2827 2.55935 14.4559 2.55935ZM19.2856 13.6476C21.0234 12.2387 22.1341 10.0888 22.1341 7.67797C22.1341 3.43845 18.6957 0 14.4562 0C10.2166 0 6.77819 3.43845 6.77819 7.67797C6.77819 10.0888 7.88894 12.2387 9.62672 13.6476C4.6514 15.4634 0.990285 20.0075 0.448989 25.4691C0.296709 27.0098 1.56357 28.1525 2.93921 28.1525H25.9731C27.3487 28.1525 28.6156 27.0098 28.4633 25.4691C27.9207 20.0075 24.2596 15.4634 19.2856 13.6476ZM14.4561 15.356C8.52873 15.356 3.64554 19.8348 3.00955 25.5932H25.9027C25.2667 19.8348 20.3835 15.356 14.4561 15.356Z" fill="#C4C4C4"/>
<path fill-rule="evenodd" clip-rule="evenodd" d="M14.4559 2.55935C11.6291 2.55935 9.33725 4.85122 9.33725 7.67799C9.33725 10.5048 11.6291 12.7966 14.4559 12.7966C17.2827 12.7966 19.5745 10.5048 19.5745 7.67799C19.5745 4.85122 17.2827 2.55935 14.4559 2.55935ZM19.2856 13.6476C21.0234 12.2387 22.1341 10.0888 22.1341 7.67797C22.1341 3.43845 18.6957 0 14.4562 0C10.2166 0 6.77819 3.43845 6.77819 7.67797C6.77819 10.0888 7.88894 12.2387 9.62672 13.6476C4.6514 15.4634 0.990285 20.0075 0.448989 25.4691C0.296709 27.0098 1.56357 28.1525 2.93921 28.1525H25.9731C27.3487 28.1525 28.6156 27.0098 28.4633 25.4691C27.9207 20.0075 24.2596 15.4634 19.2856 13.6476ZM14.4561 15.356C8.52873 15.356 3.64554 19.8348 3.00955 25.5932H25.9027C25.2667 19.8348 20.3835 15.356 14.4561 15.356Z" fill="url(#paint0_linear)"/>
<defs>
<linearGradient id="paint0_linear" x1="14.4562" y1="0" x2="14.4562" y2="28.1525" gradientUnits="userSpaceOnUse">
<stop stop-color="#01E9FF"/>
<stop offset="1" stop-color="#4E1AFF"/>
</linearGradient>
</defs>
</svg>
