<svg width="11" height="23" viewBox="0 0 11 23" fill="none" xmlns="http://www.w3.org/2000/svg">
<path d="M5.90022 10.0316H5.85171C3.04411 9.38439 3.04411 8.19989 3.04411 7.83355C3.04411 6.34988 4.32966 5.67826 5.51819 5.67826C6.00647 5.67645 6.48432 5.82051 6.89126 6.09222C7.2982 6.36393 7.61594 6.75108 7.8043 7.20467C7.86855 7.40539 7.97358 7.59045 8.1127 7.74809C8.25181 7.90573 8.42198 8.03251 8.61239 8.12036C8.80279 8.20821 9.00927 8.25522 9.21869 8.25839C9.42811 8.26157 9.63589 8.22083 9.82884 8.13879C10.0218 8.05675 10.1957 7.93518 10.3394 7.78183C10.4832 7.62847 10.5937 7.44667 10.6639 7.248C10.7341 7.04932 10.7626 6.8381 10.7473 6.62778C10.7321 6.41745 10.6736 6.21261 10.5755 6.02628C10.2593 5.25982 9.77477 4.57543 9.15828 4.02449C8.54179 3.47355 7.80937 3.07038 7.01599 2.84524V1.52641C7.01599 1.12158 6.85627 0.733334 6.57197 0.447076C6.28766 0.160818 5.90207 0 5.5 0C5.09794 0 4.71234 0.160818 4.42804 0.447076C4.14374 0.733334 3.98402 1.12158 3.98402 1.52641V2.81471C2.85249 3.06673 1.84051 3.70061 1.11589 4.61123C0.391275 5.52185 -0.00245035 6.65449 1.14749e-05 7.82134C1.14749e-05 9.29891 0.667045 11.9243 5.09978 12.9623H5.14829C7.9559 13.6095 7.9559 14.794 7.9559 15.1603C7.9559 16.644 6.67034 17.3156 5.48181 17.3156C4.99938 17.312 4.52861 17.166 4.12769 16.8958C3.72677 16.6256 3.4133 16.243 3.22603 15.7953C3.15556 15.6028 3.04712 15.4267 2.90725 15.2775C2.76739 15.1283 2.59897 15.0092 2.41217 14.9273C2.22536 14.8454 2.02402 14.8024 1.82027 14.8009C1.61652 14.7994 1.41458 14.8394 1.22661 14.9186C1.03864 14.9978 0.868523 15.1144 0.726514 15.2615C0.584504 15.4086 0.473535 15.5832 0.400291 15.7746C0.327048 15.9661 0.293046 16.1705 0.300331 16.3755C0.307615 16.5805 0.356036 16.7819 0.442679 16.9676C0.758888 17.7341 1.24342 18.4185 1.85991 18.9694C2.4764 19.5203 3.20883 19.9235 4.00221 20.1487V21.4736C4.00221 21.8784 4.16193 22.2667 4.44623 22.5529C4.73053 22.8392 5.11613 23 5.51819 23C5.92026 23 6.30585 22.8392 6.59016 22.5529C6.87446 22.2667 7.03418 21.8784 7.03418 21.4736V20.1853C8.16132 19.9299 9.16838 19.2953 9.88931 18.3863C10.6102 17.4773 11.002 16.348 11 15.1848C11 13.7011 10.3633 11.0757 5.90022 10.0316Z" fill="white"/>
</svg>
