<svg width="27" height="29" viewBox="0 0 27 29" fill="none" xmlns="http://www.w3.org/2000/svg">
<path d="M24.7581 21.7232L24.7581 21.7232C25.0034 21.9369 25.0228 22.3343 24.7974 22.5745C24.7974 22.5745 24.7974 22.5745 24.7974 22.5745L22.4194 25.1074C21.1643 26.4444 19.302 26.8604 17.7253 26.1141C13.7728 24.2432 10.8688 22.3001 8.54133 19.8298C6.21495 17.3606 4.42519 14.323 2.75815 10.2042C2.08239 8.53462 2.48586 6.57834 3.72445 5.259L6.1438 2.68188C6.36382 2.44752 6.72306 2.4655 6.92154 2.72389L10.4884 7.36755L10.4884 7.36756C10.6641 7.59625 10.6478 7.93117 10.4528 8.13902L8.48725 10.2326C7.84291 10.919 7.68547 11.9848 8.14168 12.8467L8.25216 12.7883L8.14168 12.8467C9.1083 14.6728 10.0382 16.0883 11.1661 17.2965C12.2959 18.5067 13.5967 19.4794 15.2746 20.4543C16.0892 20.9276 17.0818 20.746 17.717 20.0694L19.6958 17.9616C19.8877 17.7573 20.19 17.7419 20.3986 17.9238L20.3986 17.9238L24.7581 21.7232ZM25.7502 20.457L25.668 20.5513L25.7502 20.457L21.3906 16.6576C20.5598 15.9335 19.3471 15.9987 18.5893 16.8059L16.6105 18.9138C16.4451 19.0899 16.2067 19.1205 16.0261 19.0157C14.4374 18.0925 13.2704 17.2095 12.2758 16.1441C11.2793 15.0768 10.4281 13.7969 9.5013 12.0459C9.39206 11.8395 9.42457 11.5686 9.59381 11.3883L11.5593 9.2947L11.4682 9.20914L11.5593 9.29469C12.3139 8.49088 12.3733 7.21214 11.6984 6.33355L8.1315 1.68989C7.35054 0.673165 5.91089 0.595574 5.03722 1.52621L2.61786 4.10332C0.966791 5.86205 0.383786 8.52123 1.32604 10.8493C3.04354 15.0927 4.93005 18.3271 7.43673 20.9876C9.94232 23.6469 13.0281 25.691 17.0875 27.6124C19.3004 28.6599 21.849 28.0494 23.526 26.2631L25.904 23.7302C26.7722 22.8054 26.7019 21.2866 25.7502 20.457Z" fill="#C4C4C4"/>
<path d="M24.7581 21.7232L24.7581 21.7232C25.0034 21.9369 25.0228 22.3343 24.7974 22.5745C24.7974 22.5745 24.7974 22.5745 24.7974 22.5745L22.4194 25.1074C21.1643 26.4444 19.302 26.8604 17.7253 26.1141C13.7728 24.2432 10.8688 22.3001 8.54133 19.8298C6.21495 17.3606 4.42519 14.323 2.75815 10.2042C2.08239 8.53462 2.48586 6.57834 3.72445 5.259L6.1438 2.68188C6.36382 2.44752 6.72306 2.4655 6.92154 2.72389L10.4884 7.36755L10.4884 7.36756C10.6641 7.59625 10.6478 7.93117 10.4528 8.13902L8.48725 10.2326C7.84291 10.919 7.68547 11.9848 8.14168 12.8467L8.25216 12.7883L8.14168 12.8467C9.1083 14.6728 10.0382 16.0883 11.1661 17.2965C12.2959 18.5067 13.5967 19.4794 15.2746 20.4543C16.0892 20.9276 17.0818 20.746 17.717 20.0694L19.6958 17.9616C19.8877 17.7573 20.19 17.7419 20.3986 17.9238L20.3986 17.9238L24.7581 21.7232ZM25.7502 20.457L25.668 20.5513L25.7502 20.457L21.3906 16.6576C20.5598 15.9335 19.3471 15.9987 18.5893 16.8059L16.6105 18.9138C16.4451 19.0899 16.2067 19.1205 16.0261 19.0157C14.4374 18.0925 13.2704 17.2095 12.2758 16.1441C11.2793 15.0768 10.4281 13.7969 9.5013 12.0459C9.39206 11.8395 9.42457 11.5686 9.59381 11.3883L11.5593 9.2947L11.4682 9.20914L11.5593 9.29469C12.3139 8.49088 12.3733 7.21214 11.6984 6.33355L8.1315 1.68989C7.35054 0.673165 5.91089 0.595574 5.03722 1.52621L2.61786 4.10332C0.966791 5.86205 0.383786 8.52123 1.32604 10.8493C3.04354 15.0927 4.93005 18.3271 7.43673 20.9876C9.94232 23.6469 13.0281 25.691 17.0875 27.6124C19.3004 28.6599 21.849 28.0494 23.526 26.2631L25.904 23.7302C26.7722 22.8054 26.7019 21.2866 25.7502 20.457Z" fill="url(#paint0_linear)"/>
<path d="M24.7581 21.7232L24.7581 21.7232C25.0034 21.9369 25.0228 22.3343 24.7974 22.5745C24.7974 22.5745 24.7974 22.5745 24.7974 22.5745L22.4194 25.1074C21.1643 26.4444 19.302 26.8604 17.7253 26.1141C13.7728 24.2432 10.8688 22.3001 8.54133 19.8298C6.21495 17.3606 4.42519 14.323 2.75815 10.2042C2.08239 8.53462 2.48586 6.57834 3.72445 5.259L6.1438 2.68188C6.36382 2.44752 6.72306 2.4655 6.92154 2.72389L10.4884 7.36755L10.4884 7.36756C10.6641 7.59625 10.6478 7.93117 10.4528 8.13902L8.48725 10.2326C7.84291 10.919 7.68547 11.9848 8.14168 12.8467L8.25216 12.7883L8.14168 12.8467C9.1083 14.6728 10.0382 16.0883 11.1661 17.2965C12.2959 18.5067 13.5967 19.4794 15.2746 20.4543C16.0892 20.9276 17.0818 20.746 17.717 20.0694L19.6958 17.9616C19.8877 17.7573 20.19 17.7419 20.3986 17.9238L20.3986 17.9238L24.7581 21.7232ZM25.7502 20.457L25.668 20.5513L25.7502 20.457L21.3906 16.6576C20.5598 15.9335 19.3471 15.9987 18.5893 16.8059L16.6105 18.9138C16.4451 19.0899 16.2067 19.1205 16.0261 19.0157C14.4374 18.0925 13.2704 17.2095 12.2758 16.1441C11.2793 15.0768 10.4281 13.7969 9.5013 12.0459C9.39206 11.8395 9.42457 11.5686 9.59381 11.3883L11.5593 9.2947L11.4682 9.20914L11.5593 9.29469C12.3139 8.49088 12.3733 7.21214 11.6984 6.33355L8.1315 1.68989C7.35054 0.673165 5.91089 0.595574 5.03722 1.52621L2.61786 4.10332C0.966791 5.86205 0.383786 8.52123 1.32604 10.8493C3.04354 15.0927 4.93005 18.3271 7.43673 20.9876C9.94232 23.6469 13.0281 25.691 17.0875 27.6124C19.3004 28.6599 21.849 28.0494 23.526 26.2631L25.904 23.7302C26.7722 22.8054 26.7019 21.2866 25.7502 20.457Z" stroke="#C4C4C4" stroke-width="0.25"/>
<path d="M24.7581 21.7232L24.7581 21.7232C25.0034 21.9369 25.0228 22.3343 24.7974 22.5745C24.7974 22.5745 24.7974 22.5745 24.7974 22.5745L22.4194 25.1074C21.1643 26.4444 19.302 26.8604 17.7253 26.1141C13.7728 24.2432 10.8688 22.3001 8.54133 19.8298C6.21495 17.3606 4.42519 14.323 2.75815 10.2042C2.08239 8.53462 2.48586 6.57834 3.72445 5.259L6.1438 2.68188C6.36382 2.44752 6.72306 2.4655 6.92154 2.72389L10.4884 7.36755L10.4884 7.36756C10.6641 7.59625 10.6478 7.93117 10.4528 8.13902L8.48725 10.2326C7.84291 10.919 7.68547 11.9848 8.14168 12.8467L8.25216 12.7883L8.14168 12.8467C9.1083 14.6728 10.0382 16.0883 11.1661 17.2965C12.2959 18.5067 13.5967 19.4794 15.2746 20.4543C16.0892 20.9276 17.0818 20.746 17.717 20.0694L19.6958 17.9616C19.8877 17.7573 20.19 17.7419 20.3986 17.9238L20.3986 17.9238L24.7581 21.7232ZM25.7502 20.457L25.668 20.5513L25.7502 20.457L21.3906 16.6576C20.5598 15.9335 19.3471 15.9987 18.5893 16.8059L16.6105 18.9138C16.4451 19.0899 16.2067 19.1205 16.0261 19.0157C14.4374 18.0925 13.2704 17.2095 12.2758 16.1441C11.2793 15.0768 10.4281 13.7969 9.5013 12.0459C9.39206 11.8395 9.42457 11.5686 9.59381 11.3883L11.5593 9.2947L11.4682 9.20914L11.5593 9.29469C12.3139 8.49088 12.3733 7.21214 11.6984 6.33355L8.1315 1.68989C7.35054 0.673165 5.91089 0.595574 5.03722 1.52621L2.61786 4.10332C0.966791 5.86205 0.383786 8.52123 1.32604 10.8493C3.04354 15.0927 4.93005 18.3271 7.43673 20.9876C9.94232 23.6469 13.0281 25.691 17.0875 27.6124C19.3004 28.6599 21.849 28.0494 23.526 26.2631L25.904 23.7302C26.7722 22.8054 26.7019 21.2866 25.7502 20.457Z" stroke="url(#paint1_linear)" stroke-width="0.25"/>
<defs>
<linearGradient id="paint0_linear" x1="13.6936" y1="1" x2="13.6936" y2="28" gradientUnits="userSpaceOnUse">
<stop stop-color="#01E9FF"/>
<stop offset="1" stop-color="#4E1AFF"/>
</linearGradient>
<linearGradient id="paint1_linear" x1="13.6936" y1="1" x2="13.6936" y2="28" gradientUnits="userSpaceOnUse">
<stop stop-color="#01E9FF"/>
<stop offset="1" stop-color="#4E1AFF"/>
</linearGradient>
</defs>
</svg>
