<svg width="27" height="29" viewBox="0 0 27 29" fill="none" xmlns="http://www.w3.org/2000/svg">
<path d="M13.2824 5.50165L4.20128 12.7452V27.3703H9.84456V18.54C9.84456 18.1951 10.104 17.8502 10.4932 17.8502H16.0068C16.396 17.8502 16.6554 18.1261 16.6554 18.54V27.3703H22.2987V12.7452L13.2824 5.50165ZM11.1419 27.3703H15.3581V19.2299H11.1419V27.3703ZM2.90397 13.573C1.99586 13.78 0.893146 13.4351 0.374223 12.6072C-0.27443 11.5724 -0.0798343 9.91677 0.958011 9.2269L11.8554 0.465657C12.6986 -0.155219 13.8013 -0.155219 14.6446 0.465657L25.6068 9.2269C26.6447 10.1237 26.8393 11.5724 26.0609 12.6762C25.4771 13.4351 24.5041 13.78 23.596 13.573V28.0601C23.596 28.4741 23.3366 28.75 22.9474 28.75H3.55262C3.16343 28.75 2.90397 28.4051 2.90397 28.0601V13.573ZM2.83911 12.0553L12.8932 4.05294C13.0878 3.91497 13.4122 3.91497 13.6068 4.05294L23.596 11.9864C24.1149 12.3313 24.6339 12.4003 25.0879 11.7794C25.4122 11.2275 25.2176 10.7446 24.7636 10.3307L13.8662 1.56944C13.477 1.29349 13.023 1.29349 12.6338 1.56944L1.67153 10.3307C1.21747 10.6756 1.08774 11.3655 1.47693 11.8484C1.80126 12.2623 2.44991 12.4003 2.83911 12.0553Z" fill="black"/>
<path d="M13.2824 5.50165L4.20128 12.7452V27.3703H9.84456V18.54C9.84456 18.1951 10.104 17.8502 10.4932 17.8502H16.0068C16.396 17.8502 16.6554 18.1261 16.6554 18.54V27.3703H22.2987V12.7452L13.2824 5.50165ZM11.1419 27.3703H15.3581V19.2299H11.1419V27.3703ZM2.90397 13.573C1.99586 13.78 0.893146 13.4351 0.374223 12.6072C-0.27443 11.5724 -0.0798343 9.91677 0.958011 9.2269L11.8554 0.465657C12.6986 -0.155219 13.8013 -0.155219 14.6446 0.465657L25.6068 9.2269C26.6447 10.1237 26.8393 11.5724 26.0609 12.6762C25.4771 13.4351 24.5041 13.78 23.596 13.573V28.0601C23.596 28.4741 23.3366 28.75 22.9474 28.75H3.55262C3.16343 28.75 2.90397 28.4051 2.90397 28.0601V13.573ZM2.83911 12.0553L12.8932 4.05294C13.0878 3.91497 13.4122 3.91497 13.6068 4.05294L23.596 11.9864C24.1149 12.3313 24.6339 12.4003 25.0879 11.7794C25.4122 11.2275 25.2176 10.7446 24.7636 10.3307L13.8662 1.56944C13.477 1.29349 13.023 1.29349 12.6338 1.56944L1.67153 10.3307C1.21747 10.6756 1.08774 11.3655 1.47693 11.8484C1.80126 12.2623 2.44991 12.4003 2.83911 12.0553Z" fill="url(#paint0_linear)"/>
<defs>
<linearGradient id="paint0_linear" x1="13.2683" y1="0" x2="13.2683" y2="28.75" gradientUnits="userSpaceOnUse">
<stop stop-color="#05E0FF"/>
<stop offset="1" stop-color="#4D20FF"/>
</linearGradient>
</defs>
</svg>
