<svg width="28" height="20" viewBox="0 0 28 20" fill="none" xmlns="http://www.w3.org/2000/svg">
<path d="M27.176 0H0.824014C0.60565 0 0.395527 0.085722 0.241024 0.238071C0.0865215 0.390827 0 0.597615 0 0.813342L0.0156563 19.1883C0.0160683 19.6368 0.384815 20 0.83967 20H27.176C27.6308 20 28 19.636 28 19.1875V0.812529C28 0.363607 27.6313 0 27.176 0ZM14.0029 10.8205L3.0608 1.62506H24.9396L14.0029 10.8205ZM1.64926 2.57369L9.4465 9.12673L1.66162 17.1622L1.64926 2.57369ZM10.7035 10.1826L13.4685 12.5064C13.6222 12.6356 13.8125 12.7006 14.0029 12.7006C14.1932 12.7006 14.3836 12.636 14.5377 12.506L17.3014 10.1822L25.2387 18.3745H2.76663L10.7035 10.1826ZM18.5576 9.12592L26.352 2.57287V17.1712L18.5576 9.12592Z" fill="#C4C4C4"/>
<path d="M27.176 0H0.824014C0.60565 0 0.395527 0.085722 0.241024 0.238071C0.0865215 0.390827 0 0.597615 0 0.813342L0.0156563 19.1883C0.0160683 19.6368 0.384815 20 0.83967 20H27.176C27.6308 20 28 19.636 28 19.1875V0.812529C28 0.363607 27.6313 0 27.176 0ZM14.0029 10.8205L3.0608 1.62506H24.9396L14.0029 10.8205ZM1.64926 2.57369L9.4465 9.12673L1.66162 17.1622L1.64926 2.57369ZM10.7035 10.1826L13.4685 12.5064C13.6222 12.6356 13.8125 12.7006 14.0029 12.7006C14.1932 12.7006 14.3836 12.636 14.5377 12.506L17.3014 10.1822L25.2387 18.3745H2.76663L10.7035 10.1826ZM18.5576 9.12592L26.352 2.57287V17.1712L18.5576 9.12592Z" fill="url(#paint0_linear)"/>
<defs>
<linearGradient id="paint0_linear" x1="14" y1="0" x2="14" y2="20" gradientUnits="userSpaceOnUse">
<stop stop-color="#01E9FF"/>
<stop offset="1" stop-color="#4E1AFF"/>
</linearGradient>
</defs>
</svg>
