<svg width="77" height="107" viewBox="0 0 77 107" fill="none" xmlns="http://www.w3.org/2000/svg">
<path d="M69.0869 30.837C69.0869 13.7877 55.5956 0 38.5463 0C21.497 0 7.70926 13.7877 7.70926 30.837V45.5143C2.9651 51.8893 0 59.895 0 68.4938C0 89.6943 17.1976 106.892 38.3981 106.892C59.5985 106.892 76.7961 89.6943 76.7961 68.4938C76.7961 59.895 73.9793 51.8893 69.0869 45.5143V30.837ZM38.5463 6.07846C52.1858 6.07846 63.3049 17.1976 63.3049 30.837V38.9911C56.6334 33.3574 48.0346 29.9475 38.5463 29.9475C29.2062 29.9475 20.6075 33.3574 13.7877 38.9911V30.837C13.7877 17.1976 24.9068 6.07846 38.5463 6.07846ZM38.5463 100.813C20.7557 100.813 6.22671 86.2844 6.22671 68.4938C6.22671 50.7032 20.7557 36.1742 38.5463 36.1742C56.3369 36.1742 70.8659 50.7032 70.8659 68.4938C70.8659 86.2844 56.3369 100.813 38.5463 100.813Z" fill="url(#paint0_linear)"/>
<path d="M38.6947 54.4102C33.9505 54.4102 30.2441 58.2648 30.2441 62.8607C30.2441 66.1223 32.0232 68.7909 34.6918 70.2734V85.9885H42.5493V70.4217C45.3662 69.0874 47.2935 66.1223 47.2935 62.8607C47.1452 58.1165 43.4388 54.4102 38.6947 54.4102Z" fill="url(#paint1_linear)"/>
<defs>
<linearGradient id="paint0_linear" x1="38.3981" y1="106.776" x2="38.3981" y2="-28.1994" gradientUnits="userSpaceOnUse">
<stop stop-color="#433DFF"/>
<stop offset="1" stop-color="#06E1FF"/>
</linearGradient>
<linearGradient id="paint1_linear" x1="41.3071" y1="85.8319" x2="38.3981" y2="42.7795" gradientUnits="userSpaceOnUse">
<stop stop-color="#433DFF"/>
<stop offset="1" stop-color="#06E1FF"/>
</linearGradient>
</defs>
</svg>
