<svg width="190" height="41" viewBox="0 0 190 41" fill="none" xmlns="http://www.w3.org/2000/svg">
<path d="M9.89441 19.6514L8.93689 22.068L3.37413 10.0762H0L8.43533 26.6277H8.8001L11.0799 22.0224L9.89441 19.6514Z" fill="#2787FF"/>
<path d="M20.9748 10.0762L15.7312 21.8856L13.497 17.0524C13.497 17.0524 16.6432 10.7601 17.0535 10.0762H14.2721L12.3571 14.499L10.3965 10.0762H7.2959L10.898 17.2804L12.2203 19.925L15.5944 26.6277H15.868L23.9842 10.0762H20.9748Z" fill="#2787FF"/>
<path d="M164.877 5.19799C171.534 5.19799 176.96 10.7152 176.96 17.4634C176.96 24.2117 171.534 29.7288 164.877 29.7288C164.147 29.7288 163.418 29.6377 162.688 29.5009C161.548 29.2729 160.499 28.9081 159.451 28.4066C157.627 27.449 156.031 26.0355 154.891 24.3029C154.025 22.9806 153.432 21.5215 153.113 19.9256C152.976 19.1049 152.885 18.2842 152.885 17.4634C152.885 10.7152 158.265 5.19799 164.877 5.19799ZM164.877 0C155.347 0 147.732 7.84258 147.732 17.4634C147.732 18.6489 147.869 19.7888 148.052 20.9287C148.508 23.163 149.374 25.2604 150.559 27.1299C152.201 29.6377 154.435 31.6439 157.08 33.0118C158.539 33.7413 160.089 34.3341 161.731 34.6077C162.734 34.79 163.782 34.8812 164.877 34.8812C174.452 34.8812 182.158 27.0387 182.158 17.4178C182.112 7.84258 174.452 0 164.877 0Z" fill="#3F47FF"/>
<path d="M187.081 38.6651C186.306 38.6651 184.984 38.6651 184.209 38.6651C185.394 37.434 186.443 36.2941 187.583 34.835C188.951 33.148 189.498 31.9169 189.498 30.549C189.498 28.1324 187.902 26.4453 185.486 26.4453C183.753 26.4453 182.841 27.1749 182.066 27.3572V29.4547C182.567 28.5883 183.753 27.9044 185.121 27.9044C186.626 27.9044 187.811 29.0899 187.811 30.777C187.811 31.9169 187.537 32.7376 186.261 34.3791C184.619 36.5677 183.434 37.7532 181.838 39.3947V40.1242H186.808C187.902 40.1242 189.316 40.1242 190 40.2154V38.6195C189.407 38.6195 188.221 38.6195 187.081 38.6651Z" fill="#2787FF"/>
<path d="M67.6647 26.3086C67.4367 25.6703 67.1175 24.8951 66.7528 24.0288L65.8408 21.8402L62.8771 15.1375L59.9133 21.8402L59.0014 23.9832C58.591 24.9863 58.2718 25.6703 58.0894 26.3542H55.0801C55.6272 25.3055 56.2656 24.12 56.8583 22.7521L62.6035 9.80273H63.3786L69.2606 22.7521C69.8989 24.12 70.5829 25.3967 71.13 26.3542H67.6647V26.3086Z" fill="#2787FF"/>
<path d="M85.3111 23.9843H87.91C89.5059 23.9843 91.1018 23.9388 91.8313 23.8932V26.4466C91.1018 26.401 89.5515 26.3554 87.91 26.3554H82.4385C82.4841 25.0331 82.5297 23.1636 82.5297 22.1149V14.3635C82.5297 12.722 82.4841 10.807 82.4385 10.123H85.4478C85.4022 10.8526 85.3567 12.722 85.3567 14.3635V23.9843H85.3111Z" fill="#2787FF"/>
<path d="M109.568 10.0775C111.21 10.0775 113.034 10.0319 113.763 9.98633V12.4941C113.034 12.4485 111.21 12.4029 109.568 12.4029H108.246C108.201 13.2693 108.201 14.4548 108.201 15.4579V22.115C108.201 23.7108 108.246 25.6259 108.337 26.3554H105.328C105.374 25.6259 105.419 23.7108 105.419 22.115V15.4579C105.419 14.4548 105.374 13.2693 105.328 12.4029H104.006C102.41 12.4029 100.632 12.4485 99.8564 12.4941V9.98633C100.586 10.0319 102.364 10.0775 104.006 10.0775H109.568Z" fill="#2787FF"/>
<path d="M128.08 19.7889C128.08 19.7889 128.125 10.7152 128.171 10.0312H125.207C125.253 10.6696 125.298 12.5846 125.298 14.2717V22.8438C125.298 24.1205 125.253 25.6252 125.207 26.2636H128.171C128.125 25.5796 128.08 24.0749 128.08 22.8438V19.7889Z" fill="#2787FF"/>
<path d="M138.612 14.3166C138.612 12.9943 138.658 11.1249 138.703 10.0762H135.694C135.785 11.0793 135.831 12.9488 135.831 14.3166V16.5053H130.04V18.8307H135.831V22.8888C135.831 24.1655 135.785 25.6701 135.694 26.3085H138.703C138.658 25.6245 138.612 24.1199 138.612 22.8888V14.3166Z" fill="#2787FF"/>
<path d="M39.9881 23.9831H38.1187V16.5965V12.3561H39.8057C41.4472 12.3561 43.1343 12.4017 43.8638 12.4473V9.93945C43.1343 9.98505 41.4472 10.0762 39.8057 10.0762H35.2461C35.2917 10.8058 35.3373 12.6752 35.3373 14.3167V22.1137C35.3373 23.1624 35.2917 25.0775 35.2461 26.3542H40.0337C41.6752 26.3542 43.3623 26.3998 44.0918 26.4453V23.9375C43.3623 23.9831 41.6296 23.9831 39.9881 23.9831Z" fill="#2787FF"/>
<path d="M43.5444 16.5059C42.8605 16.5515 41.5382 16.5515 40.0791 16.5971V18.9225C41.5382 18.9225 42.8605 18.9681 43.5444 19.0137V16.5059Z" fill="#2787FF"/>
</svg>
